# xmcd
#
# Track frame offsets:
#	150
#	10131
#	17915
#	30761
#	50466
#	64382
#	78799
#	95152
#	109790
#	125891
#	136618
#
# Disc length: 2035 seconds
#
# Revision: 0
# Processed by: cddbd v1.5PL3 Copyright (c) Steve Scherf et al.
# Submitted via: dBpowerAMP V4.0
#
DISCID=8807f10b
DTITLE=Johnny Cash/Willie Nelson - Best of Cash/Nelson
DYEAR=2000
DGENRE=Country
TTITLE0=Broken Promises-Willie Nelson
TTITLE1=Hey Porter-Johnny Cash
TTITLE2=To All the Girls I've Loved Before-Willie Nelson
TTITLE3=Ballad of The Harp Weaver-Johnny Cash
TTITLE4=Home Is Where You're Happy-Willie Nelson
TTITLE5=I Got A Woman-Johnny Cash
TTITLE6=Georgia On My Mind-Willie Nelson
TTITLE7=I Walk The Line-Johnny Cash
TTITLE8=Always On My Mind-Willie Nelson
TTITLE9=There You Go-Johnny Cash
TTITLE10=Stardust-Willie Nelson
EXTD=Allegro Corp.\nColumbia River Entertainment Group
EXTT0=
EXTT1=
EXTT2=
EXTT3=
EXTT4=
EXTT5=
EXTT6=
EXTT7=
EXTT8=
EXTT9=
EXTT10=
PLAYORDER=
